/* XPM */
static char *default[] = {
/* columns rows colors chars-per-pixel */
"29 21 3 1",
"  c white",
". c None",
"d c black",
/* pixels */
".............................",
"...........d.................",
".............................",
".............................",
"............... .............",
"..........        ...........",
"..........    .    ..........",
"..........   ....   .........",
"..........   ....   .........",
"..........   ....   .........",
"..........   ....   .........",
"..........   ....   .........",
"..........         ..........",
"..........        ...........",
"..........   ................",
"..........   ................",
"..........   ................",
"..........   ................",
"..........   ................",
".............................",
".............................",
};
